<?xml version="1.0" encoding="UTF-8"?>
<svg id="_레이어_1" data-name="레이어_1" xmlns="http://www.w3.org/2000/svg" version="1.1" viewBox="0 0 595.28 595.28">
  <!-- Generator: Adobe Illustrator 29.3.1, SVG Export Plug-In . SVG Version: 2.1.0 Build 151)  -->
  <defs>
    <style>
      .st0 {
        fill: #795523;
      }

      .st1 {
        fill: #ff493b;
      }

      .st2 {
        fill: #ffcb48;
      }
    </style>
  </defs>
  <path class="st2" d="M592.69,321.81c-58.11,90.2-168.74,151.17-295.75,151.17S59.75,412.25,1.55,322.35c.86,10.34,2.23,20.53,4.12,30.55,1.04,5.24,2.17,10.45,3.47,15.6,32.47,128.35,148.93,223.38,287.8,223.38s255.41-95.11,287.83-223.52c1.58-6.27,3.03-12.61,4.21-19.04l3.71-27.5Z"/>
  <path class="st2" d="M0,295.94c0,8.73.45,17.34,1.2,25.88,58.1,90.19,168.73,151.17,295.75,151.17s237.64-60.98,295.75-151.17c.74-8.53,1.2-17.15,1.2-25.87,0-28.56-4.14-56.15-11.72-82.28l.15-6.64c-.65.12-1.29.3-1.94.45C542.64,87.25,430.02,0,296.95,0S51.53,87.04,13.65,207.04h-.02v.04C4.79,235.13,0,264.98,0,295.94Z"/>
  <circle class="st0" cx="195.89" cy="225.91" r="32.91"/>
  <path class="st0" d="M423.31,248.7h-66.98c-4.51,0-8.58-2.72-10.31-6.89-1.73-4.17-.77-8.98,2.42-12.17l44.66-44.66c4.36-4.36,11.43-4.36,15.79,0,4.36,4.36,4.36,11.43,0,15.79l-25.6,25.6h40.03c6.17,0,11.16,5,11.16,11.17s-5,11.17-11.16,11.17Z"/>
  <path class="st0" d="M292.44,419.07c-3.84,0-7.58-1.99-9.65-5.54-3.11-5.33-1.31-12.16,4.02-15.27l34.09-19.89-17.36-7.22c-4.22-1.76-6.95-5.91-6.88-10.48.07-4.58,2.93-8.64,7.2-10.27l15.9-6.03-32.83-18.61c-5.36-3.04-7.25-9.85-4.21-15.22,3.04-5.37,9.85-7.25,15.22-4.21l53.5,30.32c3.76,2.13,5.96,6.25,5.63,10.56-.33,4.32-3.12,8.05-7.17,9.59l-11.86,4.5,12.19,5.07c3.91,1.63,6.57,5.33,6.85,9.56.28,4.23-1.85,8.26-5.51,10.39l-53.5,31.21c-1.77,1.03-3.7,1.52-5.61,1.52Z"/>
  <path class="st1" d="M418.31,310.94c4.38,2.79,6.97,6.66,8.8,11.11,1.16,2.84,2.14,5.75,2.76,8.77.13.62.38.72.96.62,4-.65,8.04-.9,12.08-.51,7.35.7,12.95,4.51,17.24,10.28,4.71,6.34,5.11,13.24,2.06,20.43-3.33,7.86-9.47,12.49-17.37,15.11-3.43,1.14-6.95,1.84-10.5,2.44-6.08,1.03-12.15,2.08-18.23,3.12-6.63,1.14-13.26,2.28-19.88,3.42-2.17.37-3.61-.61-4.07-2.78-2.14-10.22-4.28-20.44-6.42-30.66-.78-3.72-1.65-7.43-2.36-11.17-1.16-6.16-1.48-12.34.61-18.36,2.64-7.58,7.57-13.07,15.36-15.56,5.14-1.65,10.15-.73,14.97,1.48,1.48.68,2.9,1.45,3.99,2.26Z"/>
</svg>