<?xml version="1.0" encoding="UTF-8"?>
<svg id="_레이어_1" data-name="레이어_1" xmlns="http://www.w3.org/2000/svg" version="1.1" viewBox="0 0 595.28 595.28">
  <!-- Generator: Adobe Illustrator 29.3.1, SVG Export Plug-In . SVG Version: 2.1.0 Build 151)  -->
  <defs>
    <style>
      .st0 {
        fill: #795523;
      }

      .st1 {
        fill: #ffcb48;
      }

      .st2 {
        fill: #01bbff;
      }
    </style>
  </defs>
  <path class="st1" d="M592.69,321.81c-58.11,90.2-168.74,151.17-295.75,151.17S59.75,412.25,1.55,322.35c.86,10.34,2.23,20.53,4.12,30.55,1.04,5.24,2.17,10.45,3.47,15.6,32.47,128.35,148.93,223.38,287.8,223.38s255.41-95.11,287.83-223.52c1.58-6.27,3.03-12.61,4.21-19.04l3.71-27.5Z"/>
  <path class="st1" d="M0,295.94c0,8.73.45,17.34,1.2,25.88,58.1,90.19,168.73,151.17,295.75,151.17s237.64-60.98,295.75-151.17c.74-8.53,1.2-17.15,1.2-25.87,0-28.56-4.14-56.15-11.72-82.28l.15-6.64c-.65.12-1.29.3-1.94.45C542.64,87.25,430.02,0,296.95,0S51.53,87.04,13.65,207.04h-.02v.04C4.79,235.13,0,264.98,0,295.94Z"/>
  <path class="st0" d="M296.95,272.36c-28.66,0-57.31,39.01-57.31,156.05h114.63c0-117.04-28.66-156.05-57.31-156.05Z"/>
  <path class="st0" d="M354.26,440.24h-114.63c-6.53,0-11.82-5.29-11.82-11.82,0-146.06,43.31-167.88,69.14-167.88s69.14,21.81,69.14,167.88c0,6.53-5.29,11.82-11.82,11.82ZM251.56,416.59h90.78c-1.76-97.44-25.2-132.41-45.39-132.41s-43.63,34.97-45.39,132.41Z"/>
  <path class="st2" d="M152.35,566.24c-5.26,0-10.06-3.54-11.43-8.86-51.59-199.45,45.5-356.99,49.66-363.59,3.47-5.52,10.77-7.18,16.29-3.71,5.52,3.47,7.19,10.76,3.73,16.29-.96,1.54-95.74,155.83-46.79,345.09,1.64,6.32-2.16,12.78-8.48,14.41-.99.26-1.99.38-2.97.38Z"/>
  <path class="st2" d="M442.87,571.6c-.98,0-1.98-.12-2.97-.38-6.32-1.63-10.12-8.08-8.48-14.41,48.95-189.26-45.83-343.55-46.79-345.09-3.46-5.53-1.8-12.82,3.73-16.29,5.52-3.47,12.82-1.81,16.29,3.71,4.16,6.61,101.24,164.15,49.66,363.59-1.37,5.32-6.18,8.86-11.43,8.86Z"/>
  <path class="st0" d="M235.36,227.75c-3.21,0-6.41-1.38-8.61-4.05-7.65-9.26-15.76-14.03-24.09-14.18-.13,0-.27,0-.4,0-15.12,0-27.94,14.29-28.07,14.43-4.08,4.6-11.12,5.07-15.74,1.01-4.62-4.05-5.11-11.06-1.08-15.7.79-.91,19.48-22.07,44.89-22.07.19,0,.39,0,.58,0,15.23.19,29.06,7.69,41.12,22.28,3.93,4.75,3.26,11.79-1.49,15.72-2.08,1.72-4.6,2.56-7.11,2.56Z"/>
  <path class="st0" d="M427.98,227.75c-3.21,0-6.41-1.38-8.61-4.05-7.65-9.26-15.76-14.03-24.09-14.18-.13,0-.27,0-.4,0-15.12,0-27.94,14.29-28.07,14.43-4.08,4.6-11.11,5.07-15.74,1.01-4.62-4.05-5.11-11.06-1.08-15.7.79-.91,19.48-22.07,44.89-22.07.19,0,.39,0,.58,0,15.23.19,29.06,7.69,41.12,22.28,3.93,4.75,3.26,11.79-1.49,15.72-2.08,1.72-4.6,2.56-7.11,2.56Z"/>
</svg>