<?xml version="1.0" encoding="UTF-8"?>
<svg id="_레이어_1" data-name="레이어_1" xmlns="http://www.w3.org/2000/svg" version="1.1" viewBox="0 0 595.28 595.28">
  <!-- Generator: Adobe Illustrator 29.3.1, SVG Export Plug-In . SVG Version: 2.1.0 Build 151)  -->
  <defs>
    <style>
      .st0 {
        fill: #26211b;
      }

      .st1 {
        fill: #ff644a;
      }
    </style>
  </defs>
  <path class="st1" d="M592.52,323.7c-58.68,89.83-169.7,150.09-296.71,149.28-126.76-.81-236.8-62.25-294.42-152.52.79,10.35,2.1,20.55,3.93,30.57,1,5.25,2.1,10.47,3.37,15.62,31.65,128.55,147.5,224.32,286.36,225.21,138.91.89,256.01-93.48,289.25-221.68,1.62-6.26,3.11-12.59,4.33-19.01l3.88-27.47Z"/>
  <path class="st1" d="M0,294.04c-.06,8.73.34,17.34,1.03,25.89,57.52,90.56,167.77,152.24,294.78,153.05,127.01.81,238.03-59.46,296.71-149.28.8-8.53,1.31-17.14,1.36-25.87.18-28.56-3.79-56.17-11.19-82.35l.19-6.63c-.65.11-1.29.29-1.94.44C543.96,88.82,431.9.86,298.83,0,165.92-.84,52.87,85.48,14.22,205.24h-.02s0,.04,0,.04C5.18,233.27.2,263.08,0,294.04Z"/>
  <path class="st0" d="M420.15,243.56h-.07l-66.98-.43c-4.51-.03-8.57-2.77-10.27-6.96-1.7-4.18-.72-8.98,2.5-12.15l44.94-44.37c4.38-4.33,11.45-4.3,15.78.1,4.33,4.39,4.29,11.45-.1,15.78l-25.76,25.44,40.03.26c6.17.04,11.13,5.07,11.09,11.24-.04,6.14-5.03,11.09-11.17,11.09Z"/>
  <path class="st0" d="M229.79,242.34h-.07l-66.97-.42c-6.17-.04-11.13-5.07-11.1-11.24.04-6.14,5.03-11.09,11.17-11.09h.07l40.03.26-25.44-25.76c-4.33-4.39-4.29-11.45.1-15.78,4.38-4.33,11.45-4.29,15.78.1l44.37,44.94c3.18,3.21,4.1,8.02,2.35,12.18-1.75,4.14-5.8,6.83-10.29,6.83Z"/>
  <path class="st0" d="M385.98,378.2h-.07c-6.17-.04-11.13-5.07-11.1-11.23.43-68-48.46-78.46-77.64-78.65-15.4-.27-37.46,2.7-54.37,16.6-15.94,13.11-24.11,33.65-24.28,61.04-.04,6.14-5.03,11.09-11.17,11.09h-.07c-6.17-.04-11.13-5.07-11.09-11.24.22-34.33,11.13-60.63,32.43-78.14,17.46-14.37,41.27-21.7,68.69-21.69,23.56.15,100.42,7.88,99.83,101.11-.04,6.14-5.03,11.1-11.17,11.1Z"/>
</svg>