<?xml version="1.0" encoding="UTF-8"?>
<svg id="_레이어_1" data-name="레이어_1" xmlns="http://www.w3.org/2000/svg" version="1.1" viewBox="0 0 595.28 595.28">
  <!-- Generator: Adobe Illustrator 29.3.1, SVG Export Plug-In . SVG Version: 2.1.0 Build 151)  -->
  <defs>
    <style>
      .st0 {
        fill: #00baff;
      }

      .st1 {
        fill: #795523;
      }

      .st2 {
        fill: #ffcb48;
      }

      .st3 {
        fill: #00bff7;
      }
    </style>
  </defs>
  <path class="st2" d="M592.69,321.81c-58.11,90.2-168.74,151.17-295.75,151.17S59.75,412.25,1.55,322.35c.86,10.34,2.23,20.53,4.12,30.55,1.04,5.24,2.17,10.45,3.47,15.6,32.47,128.35,148.93,223.38,287.8,223.38s255.41-95.11,287.83-223.52c1.58-6.27,3.03-12.61,4.21-19.04l3.71-27.5Z"/>
  <path class="st2" d="M0,295.94c0,8.73.45,17.34,1.2,25.88,58.1,90.19,168.73,151.17,295.75,151.17s237.64-60.98,295.75-151.17c.74-8.53,1.2-17.15,1.2-25.87,0-28.56-4.14-56.15-11.72-82.28l.15-6.64c-.65.12-1.29.3-1.94.45C542.64,87.25,430.02,0,296.95,0S51.53,87.04,13.65,207.04h-.02v.04C4.79,235.13,0,264.98,0,295.94Z"/>
  <path class="st1" d="M386.25,313.13h-178.62c0,80,44.65,106.67,89.31,106.67s89.31-26.67,89.31-106.67Z"/>
  <path class="st1" d="M296.95,432c-23.82,0-101.51-8.57-101.51-118.87,0-6.74,5.46-12.2,12.2-12.2h178.62c6.74,0,12.2,5.46,12.2,12.2,0,110.3-77.7,118.87-101.51,118.87ZM220.21,325.33c4.57,71.24,49.42,82.27,76.73,82.27s72.17-11.03,76.73-82.27h-153.47Z"/>
  <path class="st0" d="M419.75,276.26c-11.98,0-21.76-9.44-22.31-21.28-4.93-1.04-14.71-1.04-20.96-1.04-12.33,0-22.33-10-22.33-22.33s10-22.33,22.33-22.33c21.29,0,65.59,0,65.59,44.66,0,12.33-10,22.33-22.33,22.33ZM397.34,252.69h0Z"/>
  <path class="st1" d="M419.75,242.77h-66.98c-4.51,0-8.58-2.72-10.31-6.89s-.77-8.97,2.42-12.17l44.66-44.66c4.36-4.36,11.43-4.36,15.79,0,4.36,4.36,4.36,11.43,0,15.79l-25.6,25.6h40.03c6.17,0,11.17,5,11.17,11.16s-5,11.16-11.17,11.16Z"/>
  <path class="st3" d="M162.4,276.26c-12.33,0-22.33-10-22.33-22.33,0-44.66,47.92-44.66,68.38-44.66,12.33,0,22.33,10,22.33,22.33s-10,22.33-22.33,22.33c-6.69,0-18.39,0-23.77,1.43-.74,11.67-10.43,20.9-22.28,20.9ZM184.77,253.21h0Z"/>
  <path class="st1" d="M229.38,242.77h-66.98c-6.17,0-11.17-5-11.17-11.16s5-11.16,11.17-11.16h40.03l-25.6-25.6c-4.36-4.36-4.36-11.43,0-15.79,4.36-4.36,11.43-4.36,15.79,0l44.65,44.66c3.19,3.2,4.15,8,2.42,12.17-1.73,4.17-5.8,6.89-10.31,6.89Z"/>
</svg>