<svg width="170" height="210" viewBox="0 0 170 210" fill="none" xmlns="http://www.w3.org/2000/svg">
<path d="M140.137 106.923C130.223 122.316 111.343 132.714 89.6693 132.714C67.9958 132.714 49.1981 122.352 39.2652 107.015C39.4113 108.777 39.6486 110.52 39.9682 112.228C40.1416 113.122 40.3425 114.008 40.5616 114.884C46.1032 136.786 65.9782 153 89.6693 153C113.36 153 133.254 136.768 138.786 114.857C139.06 113.789 139.306 112.702 139.507 111.607L140.137 106.914V106.923Z" fill="#FFCB48"/>
<path d="M39 102.504C39 103.993 39.073 105.462 39.2009 106.923C49.1155 122.316 67.9953 132.714 89.6688 132.714C111.342 132.714 130.222 122.306 140.137 106.923C140.265 105.472 140.338 103.993 140.338 102.504C140.338 97.6293 139.635 92.9276 138.338 88.4633L138.366 87.3312C138.256 87.3495 138.147 87.386 138.037 87.4043C131.601 66.8902 112.383 52 89.6688 52C66.9546 52 47.7917 66.8537 41.328 87.3312C39.8216 92.1242 39 97.2185 39 102.495V102.504Z" fill="#FFCB48"/>
<path d="M104.906 105.435H74.4316C74.4316 119.084 82.0547 123.639 89.6687 123.639C97.2828 123.639 104.906 119.093 104.906 105.435Z" fill="#795523"/>
<path d="M89.6685 125.721C85.6059 125.721 72.3498 124.26 72.3498 105.435C72.3498 104.285 73.281 103.353 74.4314 103.353H104.906C106.056 103.353 106.987 104.285 106.987 105.435C106.987 124.26 93.7311 125.721 89.6685 125.721ZM76.5768 107.526C77.3528 119.677 85.0125 121.567 89.6685 121.567C94.3246 121.567 101.984 119.686 102.76 107.526H76.5768Z" fill="#795523"/>
<path d="M101.528 84.1269C102.413 84.0995 103.153 84.4008 103.838 84.8481C104.276 85.1403 104.687 85.4507 105.07 85.825C105.152 85.898 105.189 85.8889 105.262 85.825C105.764 85.3502 106.312 84.9303 106.914 84.5925C108.019 83.9899 109.178 83.9899 110.338 84.3916C111.607 84.839 112.328 85.7702 112.584 87.0757C112.867 88.5091 112.447 89.7507 111.579 90.8736C111.205 91.3666 110.776 91.7957 110.329 92.2248C109.571 92.9551 108.813 93.6855 108.055 94.4158C107.225 95.2101 106.403 96.0044 105.572 96.8078C105.298 97.0725 105.006 97.0634 104.732 96.8078C103.454 95.5662 102.167 94.3337 100.889 93.0921C100.423 92.6447 99.9393 92.1974 99.4828 91.7409C98.7251 90.9832 98.0952 90.1432 97.8122 89.0933C97.4561 87.7696 97.6296 86.5188 98.4877 85.4233C99.0538 84.702 99.848 84.346 100.743 84.1999C101.017 84.1543 101.29 84.1269 101.519 84.136L101.528 84.1269Z" fill="#FF493B"/>
<path d="M69.9405 84.1269C70.826 84.0995 71.5655 84.4008 72.2502 84.8481C72.6885 85.1403 73.0993 85.4507 73.4827 85.825C73.5649 85.898 73.6014 85.8889 73.6744 85.825C74.1766 85.3502 74.7243 84.9303 75.3269 84.5925C76.4316 83.9899 77.591 83.9899 78.7504 84.3916C80.0195 84.839 80.7407 85.7702 80.9963 87.0757C81.2793 88.5091 80.8594 89.7507 79.9921 90.8736C79.6177 91.3666 79.1887 91.7957 78.7413 92.2248C77.9836 92.9551 77.2258 93.6855 76.4681 94.4158C75.6373 95.2101 74.8156 96.0044 73.9848 96.8078C73.711 97.0725 73.4188 97.0634 73.1449 96.8078C71.8668 95.5662 70.5795 94.3337 69.3014 93.0921C68.8358 92.6447 68.3519 92.1974 67.8954 91.7409C67.1377 90.9832 66.5078 90.1432 66.2248 89.0933C65.8687 87.7696 66.0422 86.5188 66.9003 85.4233C67.4664 84.702 68.2606 84.346 69.1553 84.1999C69.4292 84.1543 69.7031 84.1269 69.9313 84.136L69.9405 84.1269Z" fill="#FF493B"/>
<path d="M32.9254 124.982C29.6639 129.974 23.4945 133.322 16.4361 133.277C9.37777 133.233 3.27677 129.82 0.074646 124.801C0.119244 125.375 0.190604 125.943 0.291692 126.499C0.348183 126.79 0.407639 127.081 0.478996 127.367C2.23913 134.511 8.67609 139.833 16.3915 139.881C24.1099 139.931 30.6183 134.687 32.4646 127.563C32.5538 127.215 32.637 126.864 32.7054 126.507L32.9225 124.979L32.9254 124.982Z" fill="#FF644A"/>
<path d="M0.000280198 123.335C-0.00269299 123.82 0.0181201 124.298 0.0567716 124.774C3.25295 129.808 9.38071 133.233 16.4361 133.28C23.4945 133.325 29.6638 129.977 32.9254 124.985C32.97 124.512 32.9968 124.034 32.9997 123.549C33.0087 121.961 32.7887 120.427 32.3784 118.973L32.3902 118.605C32.3546 118.611 32.3189 118.623 32.2832 118.629C30.2287 111.933 23.9999 107.045 16.6056 107C9.22014 106.953 2.9378 111.752 0.79115 118.406C0.288681 119.961 0.0121759 121.617 0.00325629 123.338L0.000280198 123.335Z" fill="#FF644A"/>
<path d="M23.3487 120.528H23.3457L19.6233 120.505C19.3736 120.505 19.1476 120.35 19.0525 120.118C18.9573 119.886 19.0138 119.619 19.1922 119.443L21.6897 116.978C21.9335 116.738 22.3259 116.741 22.5668 116.984C22.8076 117.228 22.8046 117.621 22.5608 117.861L21.1307 119.274L23.3547 119.289C23.6966 119.289 23.9731 119.571 23.9701 119.913C23.9701 120.255 23.6906 120.528 23.3487 120.528Z" fill="#26211B"/>
<path d="M12.7703 120.46H12.7673L9.04486 120.436C8.70294 120.436 8.42643 120.154 8.42941 119.812C8.42941 119.47 8.70889 119.197 9.0508 119.197H9.05378L11.2777 119.211L9.86545 117.778C9.62463 117.535 9.6276 117.142 9.87141 116.901C10.1152 116.66 10.5077 116.663 10.7485 116.907L13.2133 119.405C13.3887 119.583 13.4422 119.851 13.3441 120.083C13.246 120.311 13.023 120.463 12.7732 120.463L12.7703 120.46Z" fill="#26211B"/>
<path d="M21.4489 128.012H21.4459C21.104 128.012 20.8275 127.729 20.8304 127.388C20.8542 123.609 18.1367 123.026 16.5163 123.017C15.66 123.002 14.4351 123.166 13.4956 123.939C12.6096 124.667 12.1547 125.809 12.1457 127.331C12.1457 127.673 11.8663 127.946 11.5243 127.946H11.5214C11.1794 127.946 10.9029 127.664 10.9059 127.322C10.9178 125.413 11.5243 123.953 12.7077 122.981C13.6769 122.181 15 121.774 16.5252 121.777C17.8335 121.786 22.1059 122.214 22.0732 127.396C22.0732 127.738 21.7937 128.012 21.4518 128.012H21.4489Z" fill="#26211B"/>
<path d="M163.943 151.718C161.105 156.122 155.702 159.098 149.5 159.098C143.298 159.098 137.918 156.133 135.076 151.744C135.118 152.248 135.186 152.747 135.277 153.235C135.327 153.492 135.384 153.745 135.447 153.996C137.033 160.263 142.72 164.903 149.5 164.903C156.28 164.903 161.973 160.258 163.556 153.988C163.634 153.682 163.705 153.371 163.762 153.058L163.943 151.715V151.718Z" fill="#FFCB48"/>
<path d="M135 150.453C135 150.879 135.021 151.299 135.058 151.717C137.895 156.122 143.298 159.098 149.5 159.098C155.702 159.098 161.105 156.12 163.943 151.717C163.979 151.302 164 150.879 164 150.453C164 149.058 163.799 147.712 163.428 146.435L163.436 146.111C163.404 146.116 163.373 146.126 163.342 146.132C161.5 140.261 156 136 149.5 136C143 136 137.516 140.251 135.666 146.111C135.235 147.482 135 148.94 135 150.45V150.453Z" fill="#FFCB48"/>
<path d="M155.107 150.934H143.912C143.912 153.753 146.71 154.693 149.508 154.693C152.306 154.693 155.104 153.753 155.104 150.934H155.107Z" fill="#795523"/>
<path d="M149.508 155.265C145.644 155.265 143.337 153.646 143.337 150.934C143.337 150.618 143.593 150.361 143.909 150.361H155.104C155.421 150.361 155.677 150.618 155.677 150.934C155.677 153.646 153.37 155.265 149.506 155.265H149.508ZM144.536 151.506C144.973 153.849 148.105 154.118 149.508 154.118C150.911 154.118 154.044 153.849 154.483 151.506H144.536Z" fill="#795523"/>
<path d="M146.493 147.124C146.336 147.124 146.18 147.057 146.073 146.926C145.699 146.474 145.302 146.241 144.897 146.234C144.892 146.234 144.884 146.234 144.876 146.234C144.137 146.234 143.512 146.931 143.504 146.939C143.306 147.164 142.961 147.187 142.736 146.989C142.512 146.79 142.485 146.448 142.684 146.223C142.723 146.179 143.645 145.126 144.905 145.147C145.649 145.157 146.323 145.523 146.911 146.234C147.102 146.466 147.071 146.808 146.838 147.002C146.736 147.085 146.613 147.127 146.491 147.127L146.493 147.124Z" fill="#795523"/>
<path d="M155.898 147.125C155.742 147.125 155.585 147.057 155.478 146.926C155.104 146.474 154.707 146.241 154.302 146.234C154.297 146.234 154.289 146.234 154.281 146.234C153.542 146.234 152.917 146.931 152.91 146.939C152.711 147.164 152.366 147.187 152.141 146.989C151.917 146.79 151.891 146.448 152.089 146.223C152.128 146.179 153.04 145.147 154.281 145.147C154.292 145.147 154.299 145.147 154.31 145.147C155.055 145.157 155.729 145.523 156.316 146.234C156.507 146.466 156.476 146.808 156.243 147.002C156.141 147.085 156.019 147.127 155.896 147.127L155.898 147.125Z" fill="#795523"/>
<path d="M47.0574 46.8393C42.9344 53.2401 35.0834 57.5643 26.0706 57.5643C17.0578 57.5643 9.24089 53.2553 5.11035 46.8773C5.17109 47.61 5.2698 48.3351 5.40267 49.045C5.47481 49.4171 5.55833 49.7853 5.64944 50.1498C7.95389 59.2575 16.2188 66 26.0706 66C35.9224 66 44.1948 59.2499 46.4955 50.1384C46.6094 49.6942 46.7119 49.2425 46.7954 48.7869L47.0574 46.8355V46.8393Z" fill="#FFCB48"/>
<path d="M5 45.002C5 45.6208 5.03037 46.232 5.08352 46.8395C9.20647 53.2403 17.0575 57.5645 26.0703 57.5645C35.0831 57.5645 42.9342 53.2365 47.0571 46.8395C47.1103 46.2358 47.1406 45.6208 47.1406 45.002C47.1406 42.9747 46.8483 41.0195 46.3092 39.163L46.3206 38.6923C46.2751 38.6999 46.2295 38.7151 46.1839 38.7227C43.5074 30.192 35.5159 24 26.0703 24C16.6247 24 8.65598 30.1768 5.96809 38.6923C5.34168 40.6854 5 42.8038 5 44.9982V45.002Z" fill="#FFCB48"/>
<path d="M18.9031 41.3646C20.1925 41.3646 21.2379 40.3193 21.2379 39.0298C21.2379 37.7403 20.1925 36.695 18.9031 36.695C17.6136 36.695 16.5682 37.7403 16.5682 39.0298C16.5682 40.3193 17.6136 41.3646 18.9031 41.3646Z" fill="#795523"/>
<path d="M32.513 41.3646C33.8025 41.3646 34.8479 40.3193 34.8479 39.0298C34.8479 37.7403 33.8025 36.695 32.513 36.695C31.2235 36.695 30.1782 37.7403 30.1782 39.0298C30.1782 40.3193 31.2235 41.3646 32.513 41.3646Z" fill="#795523"/>
<path d="M21.8256 48.9654H30.3182C30.3182 44.7513 28.196 43.3466 26.0738 43.3466C23.9516 43.3466 21.8294 44.7513 21.8294 48.9654H21.8256Z" fill="#795523"/>
<path d="M30.3183 49.573H21.8257C21.4878 49.573 21.2144 49.2997 21.2144 48.9618C21.2144 43.1836 24.9312 42.7318 26.0701 42.7318C27.2091 42.7318 30.9258 43.1798 30.9258 48.9618C30.9258 49.2997 30.6524 49.573 30.3145 49.573H30.3183ZM22.4559 48.3544H29.6919C29.5287 45.5488 28.2303 43.9581 26.0739 43.9581C23.9175 43.9581 22.6153 45.5526 22.4559 48.3544Z" fill="#795523"/>
<path d="M15.8045 41.5319C15.497 40.9928 14.6276 40.9586 14.2669 41.4749C12.0726 44.6032 8.1698 53.0351 14.6276 53.1566C21.0967 53.2781 17.604 44.7095 15.8045 41.5319Z" fill="#00BBFF"/>
<path d="M169.076 30.4526C163.578 38.9869 153.11 44.7524 141.093 44.7524C129.076 44.7524 118.654 39.0072 113.147 30.5032C113.228 31.4801 113.359 32.447 113.536 33.3935C113.633 33.8896 113.744 34.3806 113.865 34.8666C116.938 47.0101 127.958 56 141.093 56C154.229 56 165.259 46.9999 168.326 34.8514C168.478 34.2591 168.615 33.6568 168.726 33.0493L169.076 30.4475V30.4526Z" fill="#FFCB48"/>
<path d="M113 28.0024C113 28.8275 113.04 29.6425 113.111 30.4524C118.608 38.9868 129.077 44.7523 141.093 44.7523C153.11 44.7523 163.578 38.9817 169.076 30.4524C169.147 29.6476 169.187 28.8275 169.187 28.0024C169.187 25.2994 168.797 22.6925 168.078 20.2172L168.094 19.5896C168.033 19.5997 167.972 19.6199 167.911 19.6301C164.343 8.25596 153.687 0 141.093 0C128.499 0 117.875 8.23572 114.291 19.5896C113.455 22.2471 113 25.0716 113 27.9974V28.0024Z" fill="#FFCB48"/>
<path d="M131.531 24.4894C133.251 24.4894 134.645 23.0957 134.645 21.3764C134.645 19.6571 133.251 18.2633 131.531 18.2633C129.812 18.2633 128.418 19.6571 128.418 21.3764C128.418 23.0957 129.812 24.4894 131.531 24.4894Z" fill="#795523"/>
<path d="M153.49 23.6442H147.431C146.733 23.6442 146.166 23.0773 146.166 22.3788C146.166 21.6802 146.733 21.1133 147.431 21.1133H153.49C154.189 21.1133 154.756 21.6802 154.756 22.3788C154.756 23.0773 154.189 23.6442 153.49 23.6442Z" fill="#795523"/>
<path d="M151.516 32.9427H130.671C130.671 38.0249 135.885 39.7206 141.094 39.7206C146.302 39.7206 151.516 38.0249 151.516 32.9427Z" fill="#795523"/>
<path d="M141.093 40.7737C133.911 40.7737 129.618 37.8479 129.618 32.9429C129.618 32.3608 130.089 31.89 130.671 31.89H151.516C152.098 31.89 152.569 32.3608 152.569 32.9429C152.569 37.8429 148.281 40.7737 141.093 40.7737ZM131.82 33.9958C132.65 38.1921 138.482 38.673 141.093 38.673C143.705 38.673 149.537 38.1921 150.367 33.9958H131.82Z" fill="#795523"/>
<path d="M135.52 31.8495H145.912V41.8468C145.912 44.0589 144.115 45.8558 141.903 45.8558H139.524C137.312 45.8558 135.515 44.0589 135.515 41.8468V31.8495H135.52Z" fill="#FF493B"/>
<path d="M126.901 187.099C122.009 194.694 112.694 199.824 102 199.824C91.3064 199.824 82.0316 194.712 77.1307 187.144C77.2027 188.013 77.3199 188.874 77.4775 189.716C77.5631 190.158 77.6622 190.595 77.7703 191.027C80.5046 201.833 90.3109 209.833 102 209.833C113.689 209.833 123.505 201.824 126.234 191.013C126.369 190.486 126.491 189.95 126.59 189.41L126.901 187.095V187.099Z" fill="#FFCB48"/>
<path d="M77 184.919C77 185.653 77.036 186.378 77.0991 187.099C81.991 194.694 91.3063 199.824 102 199.824C112.694 199.824 122.009 194.689 126.901 187.099C126.964 186.383 127 185.653 127 184.919C127 182.514 126.653 180.194 126.014 177.991L126.027 177.432C125.973 177.441 125.919 177.459 125.865 177.468C122.689 167.347 113.207 160 102 160C90.7928 160 81.3378 167.329 78.1487 177.432C77.4054 179.797 77 182.311 77 184.914V184.919Z" fill="#FFCB48"/>
<path d="M102 186.365C98.2384 186.365 94.4816 187.703 94.4816 191.716H109.518C109.518 187.703 105.756 186.365 102 186.365Z" fill="#795523"/>
<path d="M109.518 192.513H94.4816C94.0447 192.513 93.6888 192.158 93.6888 191.721C93.6888 187.874 96.7969 185.577 102 185.577C107.202 185.577 110.31 187.874 110.31 191.721C110.31 192.158 109.955 192.513 109.518 192.513ZM95.3375 190.928H108.662C108.094 187.55 103.883 187.162 102 187.162C100.117 187.162 95.9051 187.55 95.3375 190.928Z" fill="#795523"/>
<path d="M93.5807 181.432C91.4411 181.432 89.869 179.649 89.8014 179.577C89.4591 179.185 89.5041 178.59 89.896 178.252C90.2879 177.914 90.878 177.95 91.2203 178.342C91.2474 178.374 92.3284 179.563 93.6167 179.554C94.3194 179.541 94.9996 179.14 95.6438 178.36C95.9726 177.96 96.5672 177.905 96.9681 178.234C97.369 178.563 97.423 179.158 97.0942 179.559C96.0807 180.788 94.914 181.419 93.6302 181.432C93.6122 181.432 93.5987 181.432 93.5807 181.432Z" fill="#795523"/>
<path d="M109.797 181.432C107.657 181.432 106.085 179.649 106.018 179.577C105.675 179.185 105.72 178.59 106.112 178.252C106.504 177.914 107.094 177.95 107.437 178.342C107.464 178.374 108.536 179.563 109.833 179.554C110.536 179.541 111.216 179.14 111.86 178.36C112.189 177.96 112.783 177.905 113.184 178.234C113.585 178.563 113.639 179.158 113.31 179.559C112.297 180.788 111.13 181.419 109.846 181.432C109.828 181.432 109.815 181.432 109.797 181.432Z" fill="#795523"/>
</svg>
