<?xml version="1.0" encoding="UTF-8"?>
<svg id="_레이어_1" data-name="레이어_1" xmlns="http://www.w3.org/2000/svg" version="1.1" viewBox="0 0 595.28 595.28">
  <!-- Generator: Adobe Illustrator 29.3.1, SVG Export Plug-In . SVG Version: 2.1.0 Build 151)  -->
  <defs>
    <style>
      .st0 {
        fill: #795523;
      }

      .st1 {
        fill: #a2ea5c;
      }
    </style>
  </defs>
  <path class="st1" d="M592.69,321.81c-58.11,90.2-168.74,151.17-295.75,151.17S59.75,412.25,1.55,322.35c.86,10.34,2.23,20.53,4.12,30.55,1.04,5.24,2.17,10.45,3.47,15.6,32.47,128.35,148.93,223.38,287.8,223.38s255.41-95.11,287.83-223.52c1.58-6.27,3.03-12.61,4.21-19.04l3.71-27.5Z"/>
  <path class="st1" d="M0,295.94c0,8.73.45,17.34,1.2,25.88,58.1,90.19,168.73,151.17,295.75,151.17s237.64-60.98,295.75-151.17c.74-8.53,1.2-17.15,1.2-25.87,0-28.56-4.14-56.15-11.72-82.28l.15-6.64c-.65.12-1.29.3-1.94.45C542.64,87.25,430.02,0,296.95,0S51.53,87.04,13.65,207.04h-.02v.04C4.79,235.13,0,264.98,0,295.94Z"/>
  <path class="st0" d="M419.75,248.82h-66.98c-4.51,0-8.59-2.72-10.31-6.89-1.73-4.17-.77-8.98,2.42-12.17l44.66-44.65c4.36-4.36,11.43-4.36,15.79,0,4.36,4.36,4.36,11.43,0,15.79l-25.6,25.59h40.03c6.17,0,11.16,5,11.16,11.17s-5,11.17-11.16,11.17Z"/>
  <path class="st0" d="M234.06,248.82h-66.98c-6.17,0-11.16-5-11.16-11.17s5-11.17,11.16-11.17h40.03l-25.6-25.59c-4.36-4.36-4.36-11.43,0-15.79,4.36-4.36,11.43-4.36,15.79,0l44.66,44.65c3.19,3.19,4.15,7.99,2.42,12.17-1.73,4.17-5.8,6.89-10.31,6.89Z"/>
  <path class="st0" d="M244.76,378.2c-3.12,0-6.24-1.19-8.63-3.57l-31.11-31.1-29.32,29.32c-4.77,4.77-12.49,4.77-17.25,0s-4.77-12.49,0-17.25l37.95-37.94c4.77-4.77,12.49-4.77,17.25,0l31.11,31.1,37.42-37.42c4.77-4.77,12.49-4.77,17.25,0l36.61,36.61,34.95-34.95c4.77-4.77,12.49-4.77,17.25,0l42.25,42.25c4.77,4.77,4.77,12.49,0,17.25s-12.49,4.77-17.25,0l-33.63-33.63-34.95,34.95c-4.77,4.77-12.49,4.77-17.25,0l-36.61-36.61-37.42,37.42c-2.38,2.38-5.5,3.57-8.63,3.57Z"/>
</svg>