<?xml version="1.0" encoding="UTF-8"?>
<svg id="_레이어_1" data-name="레이어_1" xmlns="http://www.w3.org/2000/svg" version="1.1" viewBox="0 0 595.28 595.28">
  <!-- Generator: Adobe Illustrator 29.3.1, SVG Export Plug-In . SVG Version: 2.1.0 Build 151)  -->
  <defs>
    <style>
      .st0 {
        fill: #795523;
      }

      .st1 {
        fill: #ff493b;
      }

      .st2 {
        fill: #ffcb48;
      }
    </style>
  </defs>
  <path class="st2" d="M592.69,321.81c-58.11,90.2-168.74,151.17-295.75,151.17S59.75,412.25,1.55,322.35c.86,10.34,2.23,20.53,4.12,30.55,1.04,5.24,2.17,10.45,3.47,15.6,32.47,128.35,148.93,223.38,287.8,223.38s255.41-95.11,287.83-223.52c1.58-6.27,3.03-12.61,4.21-19.04l3.71-27.5Z"/>
  <path class="st2" d="M0,295.94c0,8.73.45,17.34,1.2,25.88,58.1,90.19,168.73,151.17,295.75,151.17s237.64-60.98,295.75-151.17c.74-8.53,1.2-17.15,1.2-25.87,0-28.56-4.14-56.15-11.72-82.28l.15-6.64c-.65.12-1.29.3-1.94.45C542.64,87.25,430.02,0,296.95,0S51.53,87.04,13.65,207.04h-.02v.04C4.79,235.13,0,264.98,0,295.94Z"/>
  <circle class="st0" cx="195.89" cy="225.91" r="32.91"/>
  <path class="st0" d="M427.97,249.86h-64.05c-7.38,0-13.37-5.99-13.37-13.37s5.99-13.37,13.37-13.37h64.05c7.38,0,13.37,5.99,13.37,13.37s-5.99,13.37-13.37,13.37Z"/>
  <path class="st0" d="M407.11,348.16h-220.34c0,53.73,55.08,71.64,110.17,71.64s110.17-17.91,110.17-71.64Z"/>
  <path class="st0" d="M296.95,430.91c-75.94,0-121.27-30.93-121.27-82.75,0-6.13,4.97-11.1,11.11-11.1h220.34c6.13,0,11.11,4.97,11.11,11.1,0,51.82-45.34,82.75-121.27,82.75ZM198.93,359.26c8.77,44.36,70.39,49.44,98.02,49.44s89.25-5.08,98.02-49.44h-196.04Z"/>
  <path class="st1" d="M238.04,336.57h109.84v140.11c0,4.37-3.55,7.92-7.92,7.92h-94.01c-4.37,0-7.92-3.55-7.92-7.92v-140.11h0Z"/>
</svg>