<?xml version="1.0" encoding="UTF-8"?>
<svg id="_레이어_1" data-name="레이어_1" xmlns="http://www.w3.org/2000/svg" version="1.1" viewBox="0 0 595.28 595.28">
  <!-- Generator: Adobe Illustrator 29.3.1, SVG Export Plug-In . SVG Version: 2.1.0 Build 151)  -->
  <defs>
    <style>
      .st0 {
        fill: #795523;
      }

      .st1 {
        fill: #ffcb48;
      }

      .st2 {
        fill: #0bf;
      }
    </style>
  </defs>
  <path class="st1" d="M592.69,321.81c-58.11,90.2-168.74,151.17-295.75,151.17S59.75,412.25,1.55,322.35c.86,10.34,2.23,20.53,4.12,30.55,1.04,5.24,2.17,10.45,3.47,15.6,32.47,128.35,148.93,223.38,287.8,223.38s255.41-95.11,287.83-223.52c1.58-6.27,3.03-12.61,4.21-19.04l3.71-27.5Z"/>
  <path class="st1" d="M0,295.94c0,8.73.45,17.34,1.2,25.88,58.1,90.19,168.73,151.17,295.75,151.17s237.64-60.98,295.75-151.17c.74-8.53,1.2-17.15,1.2-25.87,0-28.56-4.14-56.15-11.72-82.28l.15-6.64c-.65.12-1.29.3-1.94.45C542.64,87.25,430.02,0,296.95,0S51.53,87.04,13.65,207.04h-.02v.04C4.79,235.13,0,264.98,0,295.94Z"/>
  <circle class="st0" cx="195.93" cy="211.79" r="32.91"/>
  <circle class="st0" cx="387.74" cy="211.79" r="32.91"/>
  <path class="st0" d="M237.14,351.77h119.68c0-59.39-29.92-79.18-59.84-79.18-29.92,0-59.84,19.8-59.84,79.18Z"/>
  <path class="st0" d="M356.82,360.37h-119.68c-4.75,0-8.61-3.85-8.61-8.61,0-81.45,52.39-87.78,68.45-87.78s68.45,6.33,68.45,87.78c0,4.75-3.86,8.61-8.61,8.61ZM245.99,343.16h101.99c-2.28-39.52-20.58-61.97-51-61.97s-48.72,22.45-51,61.97Z"/>
  <path class="st2" d="M152.29,247c-4.32-7.61-16.58-8.07-21.67-.82-30.94,44.11-85.94,162.94,5.08,164.63,91.15,1.7,41.96-119.06,16.59-163.81Z"/>
</svg>