<?xml version="1.0" encoding="UTF-8"?>
<svg id="_레이어_1" data-name="레이어_1" xmlns="http://www.w3.org/2000/svg" version="1.1" viewBox="0 0 595.28 595.28">
  <!-- Generator: Adobe Illustrator 29.3.1, SVG Export Plug-In . SVG Version: 2.1.0 Build 151)  -->
  <defs>
    <style>
      .st0 {
        fill: #795523;
      }

      .st1 {
        fill: #ffcb48;
      }
    </style>
  </defs>
  <path class="st1" d="M592.69,321.81c-58.11,90.2-168.74,151.17-295.75,151.17S59.75,412.25,1.55,322.35c.86,10.34,2.23,20.53,4.12,30.55,1.04,5.24,2.17,10.45,3.47,15.6,32.47,128.35,148.93,223.38,287.8,223.38s255.41-95.11,287.83-223.52c1.58-6.27,3.03-12.61,4.21-19.04l3.71-27.5Z"/>
  <path class="st1" d="M0,295.94c0,8.73.45,17.34,1.2,25.88,58.1,90.19,168.73,151.17,295.75,151.17s237.64-60.98,295.75-151.17c.74-8.53,1.2-17.15,1.2-25.87,0-28.56-4.14-56.15-11.72-82.28l.15-6.64c-.65.12-1.29.3-1.94.45C542.64,87.25,430.02,0,296.95,0S51.53,87.04,13.65,207.04h-.02v.04C4.79,235.13,0,264.98,0,295.94Z"/>
  <path class="st0" d="M296.95,313.13c-44.65,0-89.31,15.89-89.31,63.57h178.62c0-47.67-44.65-63.57-89.31-63.57Z"/>
  <path class="st0" d="M386.26,386.11h-178.62c-5.2,0-9.42-4.22-9.42-9.42,0-45.7,36.91-72.98,98.73-72.98s98.73,27.28,98.73,72.98c0,5.2-4.22,9.42-9.42,9.42ZM217.81,367.28h158.27c-6.73-40.15-56.76-44.73-79.14-44.73s-72.41,4.58-79.14,44.73Z"/>
  <path class="st0" d="M196.92,254.49c-25.41,0-44.1-21.16-44.89-22.07-4.04-4.65-3.55-11.7,1.1-15.75,4.64-4.03,11.67-3.56,15.72,1.07.31.35,13.18,14.51,28.46,14.42,8.33-.14,16.43-4.91,24.09-14.18,3.93-4.75,10.97-5.42,15.72-1.49,4.75,3.93,5.42,10.96,1.49,15.72-12.05,14.59-25.89,22.09-41.12,22.28-.19,0-.39,0-.58,0Z"/>
  <path class="st0" d="M389.53,254.49c-25.41,0-44.1-21.16-44.89-22.07-4.04-4.65-3.55-11.7,1.1-15.75,4.64-4.03,11.67-3.56,15.72,1.07.32.35,13.08,14.51,28.46,14.42,8.33-.14,16.43-4.91,24.09-14.18,3.93-4.75,10.96-5.42,15.72-1.49,4.75,3.93,5.42,10.96,1.49,15.72-12.05,14.59-25.89,22.09-41.12,22.28-.19,0-.39,0-.58,0Z"/>
</svg>