<?xml version="1.0" encoding="UTF-8"?>
<svg id="_레이어_1" data-name="레이어_1" xmlns="http://www.w3.org/2000/svg" version="1.1" viewBox="0 0 595.28 595.28">
  <!-- Generator: Adobe Illustrator 29.3.1, SVG Export Plug-In . SVG Version: 2.1.0 Build 151)  -->
  <defs>
    <style>
      .st0 {
        fill: #795523;
      }

      .st1 {
        fill: #ffcb48;
      }

      .st2 {
        fill: #0bf;
      }
    </style>
  </defs>
  <path class="st1" d="M592.69,321.81c-58.11,90.2-168.74,151.17-295.75,151.17S59.75,412.25,1.55,322.35c.86,10.34,2.23,20.53,4.12,30.55,1.04,5.24,2.17,10.45,3.47,15.6,32.47,128.35,148.93,223.38,287.8,223.38s255.41-95.11,287.83-223.52c1.58-6.27,3.03-12.61,4.21-19.04l3.71-27.5Z"/>
  <path class="st1" d="M0,295.94c0,8.73.45,17.34,1.2,25.88,58.1,90.19,168.73,151.17,295.75,151.17s237.64-60.98,295.75-151.17c.74-8.53,1.2-17.15,1.2-25.87,0-28.56-4.14-56.15-11.72-82.28l.15-6.64c-.65.12-1.29.3-1.94.45C542.64,87.25,430.02,0,296.95,0S51.53,87.04,13.65,207.04h-.02v.04C4.79,235.13,0,264.98,0,295.94Z"/>
  <path class="st0" d="M411.75,305.76h-229.26c0,57.74,57.31,76.99,114.63,76.99s114.63-19.25,114.63-76.99Z"/>
  <path class="st0" d="M297.12,394.5c-79.13,0-126.37-33.17-126.37-88.74,0-6.48,5.26-11.74,11.74-11.74h229.26c6.49,0,11.74,5.26,11.74,11.74,0,55.57-47.24,88.74-126.37,88.74ZM195.28,317.5c8.95,48.02,73.1,53.51,101.84,53.51s92.89-5.49,101.84-53.51h-203.68Z"/>
  <path class="st0" d="M235.37,227.75c-3.21,0-6.41-1.38-8.61-4.05-7.65-9.26-15.76-14.03-24.08-14.18-15.28,0-28.34,14.28-28.47,14.43-4.07,4.6-11.11,5.07-15.74,1.01-4.62-4.05-5.11-11.06-1.08-15.7.79-.91,19.49-22.07,44.89-22.07.19,0,.38,0,.58,0,15.23.19,29.06,7.69,41.12,22.28,3.93,4.75,3.26,11.79-1.5,15.72-2.08,1.72-4.6,2.56-7.11,2.56Z"/>
  <path class="st0" d="M427.98,227.75c-3.21,0-6.41-1.38-8.61-4.05-7.65-9.26-15.76-14.03-24.08-14.18-15.24,0-28.34,14.28-28.47,14.43-4.07,4.6-11.11,5.07-15.74,1.01-4.62-4.05-5.11-11.06-1.08-15.7.79-.91,19.49-22.07,44.89-22.07.19,0,.38,0,.58,0,15.23.19,29.06,7.69,41.12,22.28,3.93,4.75,3.26,11.79-1.5,15.72-2.08,1.72-4.6,2.56-7.11,2.56Z"/>
  <path class="st2" d="M519.33,6.9c-4.32-8.77-16.58-9.29-21.67-.94-30.94,50.83-85.94,187.75,5.08,189.7,91.15,1.95,41.96-137.2,16.59-188.76Z"/>
</svg>