<?xml version="1.0" encoding="UTF-8"?>
<svg id="_레이어_1" data-name="레이어_1" xmlns="http://www.w3.org/2000/svg" version="1.1" viewBox="0 0 595.28 595.28">
  <!-- Generator: Adobe Illustrator 29.3.1, SVG Export Plug-In . SVG Version: 2.1.0 Build 151)  -->
  <defs>
    <style>
      .st0 {
        fill: #795523;
      }

      .st1 {
        fill: #ffcb48;
      }
    </style>
  </defs>
  <path class="st1" d="M592.69,321.81c-58.11,90.2-168.74,151.17-295.75,151.17S59.75,412.25,1.55,322.35c.86,10.34,2.23,20.53,4.12,30.55,1.04,5.24,2.17,10.45,3.47,15.6,32.47,128.35,148.93,223.38,287.8,223.38s255.41-95.11,287.83-223.52c1.58-6.27,3.03-12.61,4.21-19.04l3.71-27.5Z"/>
  <path class="st1" d="M0,295.94c0,8.73.45,17.34,1.2,25.88,58.1,90.19,168.73,151.17,295.75,151.17s237.64-60.98,295.75-151.17c.74-8.53,1.2-17.15,1.2-25.87,0-28.56-4.14-56.15-11.72-82.28l.15-6.64c-.65.12-1.29.3-1.94.45C542.64,87.25,430.02,0,296.95,0S51.53,87.04,13.65,207.04h-.02v.04C4.79,235.13,0,264.98,0,295.94Z"/>
  <circle class="st0" cx="195.89" cy="225.91" r="32.91"/>
  <circle class="st0" cx="387.7" cy="225.91" r="32.91"/>
  <path class="st0" d="M386.25,313.13h-178.62c0,80,44.65,106.67,89.31,106.67s89.31-26.67,89.31-106.67Z"/>
  <path class="st0" d="M296.95,432c-23.81,0-101.51-8.57-101.51-118.87,0-6.74,5.46-12.2,12.2-12.2h178.62c6.74,0,12.2,5.46,12.2,12.2,0,110.3-77.7,118.87-101.51,118.87ZM220.21,325.33c4.56,71.24,49.42,82.27,76.73,82.27s72.17-11.03,76.73-82.27h-153.46Z"/>
</svg>