<?xml version="1.0" encoding="UTF-8"?>
<svg id="_레이어_1" data-name="레이어_1" xmlns="http://www.w3.org/2000/svg" version="1.1" viewBox="0 0 595.28 595.28">
  <!-- Generator: Adobe Illustrator 29.3.1, SVG Export Plug-In . SVG Version: 2.1.0 Build 151)  -->
  <defs>
    <style>
      .st0 {
        fill: #795523;
      }

      .st1 {
        fill: #ff493b;
      }

      .st2 {
        fill: #ffcb48;
      }
    </style>
  </defs>
  <path class="st2" d="M592.69,321.81c-58.11,90.2-168.74,151.17-295.75,151.17S59.75,412.25,1.55,322.35c.86,10.34,2.23,20.53,4.12,30.55,1.04,5.24,2.17,10.45,3.47,15.6,32.47,128.35,148.93,223.38,287.8,223.38s255.41-95.11,287.83-223.52c1.58-6.27,3.03-12.61,4.21-19.04l3.71-27.5Z"/>
  <path class="st2" d="M0,295.94c0,8.73.45,17.34,1.2,25.88,58.1,90.19,168.73,151.17,295.75,151.17s237.64-60.98,295.75-151.17c.74-8.53,1.2-17.15,1.2-25.87,0-28.56-4.14-56.15-11.72-82.28l.15-6.64c-.65.12-1.29.3-1.94.45C542.64,87.25,430.02,0,296.95,0S51.53,87.04,13.65,207.04h-.02v.04C4.79,235.13,0,264.98,0,295.94Z"/>
  <path class="st0" d="M386.25,313.13h-178.62c0,80,44.65,106.67,89.31,106.67s89.31-26.67,89.31-106.67Z"/>
  <path class="st0" d="M296.95,432c-23.82,0-101.51-8.57-101.51-118.87,0-6.74,5.46-12.2,12.2-12.2h178.62c6.74,0,12.2,5.46,12.2,12.2,0,110.3-77.7,118.87-101.51,118.87ZM220.21,325.33c4.57,71.24,49.42,82.27,76.73,82.27s72.17-11.03,76.73-82.27h-153.47Z"/>
  <path class="st1" d="M366.43,188.25c5.19-.15,9.51,1.59,13.52,4.25,2.56,1.7,5,3.56,7.21,5.7.46.44.71.38,1.14-.03,2.95-2.79,6.15-5.26,9.71-7.21,6.48-3.55,13.25-3.54,20.04-1.18,7.46,2.6,11.66,8.08,13.18,15.74,1.66,8.38-.82,15.65-5.88,22.26-2.2,2.87-4.72,5.42-7.32,7.92-4.45,4.27-8.89,8.55-13.33,12.82-4.84,4.66-9.69,9.33-14.53,14-1.59,1.53-3.33,1.52-4.93-.02-7.51-7.25-15.02-14.51-22.53-21.76-2.74-2.64-5.54-5.22-8.22-7.92-4.42-4.44-8.16-9.38-9.81-15.54-2.08-7.75-1.07-15.07,3.96-21.5,3.33-4.25,7.99-6.31,13.21-7.18,1.6-.27,3.21-.43,4.57-.37Z"/>
  <path class="st1" d="M181.31,188.25c5.19-.15,9.51,1.59,13.52,4.25,2.56,1.7,5,3.56,7.21,5.7.46.44.71.38,1.14-.03,2.95-2.79,6.15-5.26,9.71-7.21,6.48-3.55,13.25-3.54,20.04-1.18,7.46,2.6,11.66,8.08,13.18,15.74,1.66,8.38-.82,15.65-5.88,22.26-2.2,2.87-4.72,5.42-7.32,7.92-4.45,4.27-8.89,8.55-13.33,12.82-4.84,4.66-9.69,9.33-14.53,14-1.59,1.53-3.33,1.52-4.93-.02-7.51-7.25-15.02-14.51-22.53-21.76-2.74-2.64-5.54-5.22-8.22-7.92-4.42-4.44-8.16-9.38-9.81-15.54-2.08-7.75-1.07-15.07,3.96-21.5,3.33-4.25,7.99-6.31,13.21-7.18,1.6-.27,3.21-.43,4.57-.37Z"/>
</svg>